<svg xmlns="http://www.w3.org/2000/svg" viewBox="0 0 512 512">
  <defs>
    <linearGradient id="sky" x1="0" y1="0" x2="0" y2="1">
      <stop offset="0" stop-color="#0a0e1a"/>
      <stop offset="0.55" stop-color="#13203b"/>
      <stop offset="1" stop-color="#3a2a4d"/>
    </linearGradient>
    <radialGradient id="sun" cx="0.5" cy="1" r="0.9">
      <stop offset="0" stop-color="#ffd98a"/>
      <stop offset="0.4" stop-color="#f5b942"/>
      <stop offset="1" stop-color="#f5b942" stop-opacity="0"/>
    </radialGradient>
    <linearGradient id="trail" x1="0" y1="1" x2="1" y2="0">
      <stop offset="0" stop-color="#f5b942"/>
      <stop offset="1" stop-color="#5eead4"/>
    </linearGradient>
  </defs>
  <rect width="512" height="512" rx="112" fill="url(#sky)"/>
  <circle cx="256" cy="430" r="230" fill="url(#sun)" opacity="0.85"/>
  <circle cx="120" cy="120" r="4" fill="#cdd7ee"/>
  <circle cx="400" cy="96" r="5" fill="#cdd7ee"/>
  <circle cx="360" cy="170" r="3" fill="#cdd7ee"/>
  <circle cx="150" cy="200" r="3" fill="#cdd7ee"/>
  <path d="M110 402 C 210 372, 300 300, 392 150" fill="none" stroke="url(#trail)" stroke-width="22" stroke-linecap="round" opacity="0.92"/>
  <g transform="translate(392 150) rotate(35)">
    <path d="M0 -34 C 20 -16, 20 16, 0 40 C -20 16, -20 -16, 0 -34 Z" fill="#f4f3ef"/>
    <circle cx="0" cy="-6" r="8" fill="#13203b"/>
    <path d="M-16 22 L -28 44 L -6 34 Z" fill="#f5b942"/>
    <path d="M16 22 L 28 44 L 6 34 Z" fill="#f5b942"/>
  </g>
</svg>
